<?xml version="1.0" encoding="UTF-8"?>
<svg width="207px" height="32px" viewBox="0 0 207 32" version="1.1" xmlns="http://www.w3.org/2000/svg" xmlns:xlink="http://www.w3.org/1999/xlink">
    <!-- Generator: Sketch 43.1 (39012) - http://www.bohemiancoding.com/sketch -->
    <title>logo</title>
    <desc>Created with Sketch.</desc>
    <defs>
        <rect id="path-1" x="202" y="13" width="5" height="5"></rect>
        <rect id="path-2" x="0" y="13" width="5" height="5"></rect>
    </defs>
    <g id="Page-1" stroke="none" stroke-width="1" fill="none" fill-rule="evenodd">
        <g id="logo">
            <rect id="Rectangle" stroke="#979797" x="2.5" y="0.5" width="202" height="31"></rect>
            <path d="M7.38,28 L7.38,3.988 L14.04,3.988 C16.2960113,3.988 18.3059912,4.23999748 20.07,4.744 C21.8340088,5.24800252 23.3219939,6.00399496 24.534,7.012 C25.7460061,8.02000504 26.6699968,9.2739925 27.306,10.774 C27.9420032,12.2740075 28.26,14.0079902 28.26,15.976 C28.26,17.9440098 27.9420032,19.6779925 27.306,21.178 C26.6699968,22.6780075 25.7460061,23.931995 24.534,24.94 C23.3219939,25.948005 21.8340088,26.7099974 20.07,27.226 C18.3059912,27.7420026 16.2960113,28 14.04,28 L7.38,28 Z M11.916,24.256 L11.916,7.732 L14.04,7.732 C17.0880152,7.732 19.4579915,8.4219931 21.15,9.802 C22.8420085,11.1820069 23.688,13.2399863 23.688,15.976 C23.688,18.7120137 22.8420085,20.775993 21.15,22.168 C19.4579915,23.560007 17.0880152,24.256 14.04,24.256 L11.916,24.256 Z M10.98,25.12 L14.04,25.12 C17.5440175,25.12 20.1899911,24.322008 21.978,22.726 C23.7660089,21.129992 24.66,18.8800145 24.66,15.976 C24.66,13.0719855 23.7660089,10.8280079 21.978,9.244 C20.1899911,7.65999208 17.5440175,6.868 14.04,6.868 L10.98,6.868 L10.98,25.12 Z M15.048,21.16 C16.848009,21.16 18.2399951,20.7340043 19.224,19.882 C20.2080049,19.0299957 20.7,17.7280088 20.7,15.976 C20.7,14.2239912 20.2080049,12.9280042 19.224,12.088 C18.2399951,11.2479958 16.848009,10.828 15.048,10.828 L15.048,21.16 Z M30.24,3.988 L44.388,3.988 L44.388,10.288 L37.908,10.288 L37.908,12.952 L44.28,12.952 L44.28,18.928 L37.908,18.928 L37.908,21.7 L44.64,21.7 L44.64,28 L30.24,28 L30.24,3.988 Z M41.976,25.12 L41.976,24.256 L34.776,24.256 L34.776,16.372 L41.616,16.372 L41.616,15.508 L34.776,15.508 L34.776,7.732 L41.976,7.732 L41.976,6.868 L33.84,6.868 L33.84,25.12 L41.976,25.12 Z M46.8,3.988 L53.136,3.988 L59.4,13.204 L65.628,3.988 L71.964,3.988 L71.964,28 L64.296,28 L64.296,19.36 L59.4,26.56 L54.468,19.36 L54.468,28 L46.8,28 L46.8,3.988 Z M51.336,25.12 L51.336,8.596 L59.4,20.332 L67.428,8.596 L67.428,25.12 L68.364,25.12 L68.364,6.868 L67.428,6.868 L59.4,18.712 L51.336,6.868 L50.4,6.868 L50.4,25.12 L51.336,25.12 Z M74.484,3.988 L82.62,3.988 L82.62,28 L74.484,28 L74.484,3.988 Z M79.02,25.12 L79.02,6.868 L78.084,6.868 L78.084,25.12 L79.02,25.12 Z" id="demi" fill="#10189D"></path>
            <path d="M85.404,3.988 L91.74,3.988 L98.004,13.204 L104.232,3.988 L110.568,3.988 L110.568,28 L102.9,28 L102.9,19.36 L98.004,26.56 L93.072,19.36 L93.072,28 L85.404,28 L85.404,3.988 Z M89.94,25.12 L89.94,8.596 L98.004,20.332 L106.032,8.596 L106.032,25.12 L106.968,25.12 L106.968,6.868 L106.032,6.868 L98.004,18.712 L89.94,6.868 L89.004,6.868 L89.004,25.12 L89.94,25.12 Z M112.548,16.012 C112.548,14.2839914 112.877997,12.6520077 113.538,11.116 C114.198003,9.57999232 115.097994,8.2420057 116.238,7.102 C117.378006,5.9619943 118.715992,5.0620033 120.252,4.402 C121.788008,3.7419967 123.419991,3.412 125.148,3.412 C126.876009,3.412 128.507992,3.7419967 130.044,4.402 C131.580008,5.0620033 132.917994,5.9619943 134.058,7.102 C135.198006,8.2420057 136.097997,9.57999232 136.758,11.116 C137.418003,12.6520077 137.748,14.2839914 137.748,16.012 C137.748,17.7400086 137.418003,19.3719923 136.758,20.908 C136.097997,22.4440077 135.198006,23.7819943 134.058,24.922 C132.917994,26.0620057 131.580008,26.9619967 130.044,27.622 C128.507992,28.2820033 126.876009,28.612 125.148,28.612 C123.419991,28.612 121.788008,28.2820033 120.252,27.622 C118.715992,26.9619967 117.378006,26.0620057 116.238,24.922 C115.097994,23.7819943 114.198003,22.4440077 113.538,20.908 C112.877997,19.3719923 112.548,17.7400086 112.548,16.012 Z M115.932,16.012 C115.932,17.2840064 116.171998,18.4779944 116.652,19.594 C117.132002,20.7100056 117.791996,21.6879958 118.632,22.528 C119.472004,23.3680042 120.449994,24.0279976 121.566,24.508 C122.682006,24.9880024 123.875994,25.228 125.148,25.228 C126.420006,25.228 127.613994,24.9880024 128.73,24.508 C129.846006,24.0279976 130.823996,23.3680042 131.664,22.528 C132.504004,21.6879958 133.163998,20.7100056 133.644,19.594 C134.124002,18.4779944 134.364,17.2840064 134.364,16.012 C134.364,14.7399936 134.124002,13.5460056 133.644,12.43 C133.163998,11.3139944 132.504004,10.3360042 131.664,9.496 C130.823996,8.6559958 129.846006,7.9960024 128.73,7.516 C127.613994,7.0359976 126.420006,6.796 125.148,6.796 C123.875994,6.796 122.682006,7.0359976 121.566,7.516 C120.449994,7.9960024 119.472004,8.6559958 118.632,9.496 C117.791996,10.3360042 117.132002,11.3139944 116.652,12.43 C116.171998,13.5460056 115.932,14.7399936 115.932,16.012 Z M120.108,16.012 C120.108,16.7080035 120.239999,17.3619969 120.504,17.974 C120.768001,18.5860031 121.127998,19.1199977 121.584,19.576 C122.040002,20.0320023 122.573997,20.3919987 123.186,20.656 C123.798003,20.9200013 124.451997,21.052 125.148,21.052 C125.844003,21.052 126.497997,20.9200013 127.11,20.656 C127.722003,20.3919987 128.255998,20.0320023 128.712,19.576 C129.168002,19.1199977 129.527999,18.5860031 129.792,17.974 C130.056001,17.3619969 130.188,16.7080035 130.188,16.012 C130.188,15.3159965 130.056001,14.6620031 129.792,14.05 C129.527999,13.4379969 129.168002,12.9040023 128.712,12.448 C128.255998,11.9919977 127.722003,11.6320013 127.11,11.368 C126.497997,11.1039987 125.844003,10.972 125.148,10.972 C124.451997,10.972 123.798003,11.1039987 123.186,11.368 C122.573997,11.6320013 122.040002,11.9919977 121.584,12.448 C121.127998,12.9040023 120.768001,13.4379969 120.504,14.05 C120.239999,14.6620031 120.108,15.3159965 120.108,16.012 Z M125.148,24.292 C123.995994,24.292 122.922005,24.0760022 121.926,23.644 C120.929995,23.2119978 120.054004,22.6180038 119.298,21.862 C118.541996,21.1059962 117.948002,20.230005 117.516,19.234 C117.083998,18.237995 116.868,17.1640058 116.868,16.012 C116.868,14.8599942 117.083998,13.786005 117.516,12.79 C117.948002,11.793995 118.541996,10.9180038 119.298,10.162 C120.054004,9.40599622 120.929995,8.81200216 121.926,8.38 C122.922005,7.94799784 123.995994,7.732 125.148,7.732 C126.300006,7.732 127.373995,7.94799784 128.37,8.38 C129.366005,8.81200216 130.241996,9.40599622 130.998,10.162 C131.754004,10.9180038 132.347998,11.793995 132.78,12.79 C133.212002,13.786005 133.428,14.8599942 133.428,16.012 C133.428,17.1640058 133.212002,18.237995 132.78,19.234 C132.347998,20.230005 131.754004,21.1059962 130.998,21.862 C130.241996,22.6180038 129.366005,23.2119978 128.37,23.644 C127.373995,24.0760022 126.300006,24.292 125.148,24.292 Z M139.728,3.988 L146.028,3.988 L152.652,13.24 L152.652,3.988 L160.176,3.988 L160.176,28 L153.84,28 L147.252,18.784 L147.252,28 L139.728,28 L139.728,3.988 Z M144.012,25.12 L144.012,8.488 L155.892,25.12 L156.828,25.12 L156.828,6.868 L155.892,6.868 L155.892,23.5 L144.012,6.868 L143.076,6.868 L143.076,25.12 L144.012,25.12 Z M162.696,28 L162.696,3.988 L169.356,3.988 C171.612011,3.988 173.621991,4.23999748 175.386,4.744 C177.150009,5.24800252 178.637994,6.00399496 179.85,7.012 C181.062006,8.02000504 181.985997,9.2739925 182.622,10.774 C183.258003,12.2740075 183.576,14.0079902 183.576,15.976 C183.576,17.9440098 183.258003,19.6779925 182.622,21.178 C181.985997,22.6780075 181.062006,23.931995 179.85,24.94 C178.637994,25.948005 177.150009,26.7099974 175.386,27.226 C173.621991,27.7420026 171.612011,28 169.356,28 L162.696,28 Z M167.232,24.256 L167.232,7.732 L169.356,7.732 C172.404015,7.732 174.773992,8.4219931 176.466,9.802 C178.158008,11.1820069 179.004,13.2399863 179.004,15.976 C179.004,18.7120137 178.158008,20.775993 176.466,22.168 C174.773992,23.560007 172.404015,24.256 169.356,24.256 L167.232,24.256 Z M166.296,25.12 L169.356,25.12 C172.860018,25.12 175.505991,24.322008 177.294,22.726 C179.082009,21.129992 179.976,18.8800145 179.976,15.976 C179.976,13.0719855 179.082009,10.8280079 177.294,9.244 C175.505991,7.65999208 172.860018,6.868 169.356,6.868 L166.296,6.868 L166.296,25.12 Z M170.364,21.16 C172.164009,21.16 173.555995,20.7340043 174.54,19.882 C175.524005,19.0299957 176.016,17.7280088 176.016,15.976 C176.016,14.2239912 175.524005,12.9280042 174.54,12.088 C173.555995,11.2479958 172.164009,10.828 170.364,10.828 L170.364,21.16 Z M185.556,3.988 L199.704,3.988 L199.704,10.288 L193.224,10.288 L193.224,12.952 L199.596,12.952 L199.596,18.928 L193.224,18.928 L193.224,21.7 L199.956,21.7 L199.956,28 L185.556,28 L185.556,3.988 Z M197.292,25.12 L197.292,24.256 L190.092,24.256 L190.092,16.372 L196.932,16.372 L196.932,15.508 L190.092,15.508 L190.092,7.732 L197.292,7.732 L197.292,6.868 L189.156,6.868 L189.156,25.12 L197.292,25.12 Z" id="monde" fill="#298325"></path>
            <g id="Rectangle-2">
                <use fill="#FFFFFF" fill-rule="evenodd" xlink:href="#path-1"></use>
                <rect stroke="#979797" stroke-width="1" x="202.5" y="13.5" width="4" height="4"></rect>
            </g>
            <g id="Rectangle-2">
                <use fill="#FFFFFF" fill-rule="evenodd" xlink:href="#path-2"></use>
                <rect stroke="#979797" stroke-width="1" x="0.5" y="13.5" width="4" height="4"></rect>
            </g>
        </g>
    </g>
</svg>